<?xml version="1.0" encoding="UTF-8"?>
<svg width="85px" height="31px" viewBox="0 0 85 31" version="1.1" xmlns="http://www.w3.org/2000/svg" xmlns:xlink="http://www.w3.org/1999/xlink">
    <!-- Generator: Sketch 49.2 (51160) - http://www.bohemiancoding.com/sketch -->
    <title>basil-logo</title>
    <desc>Created with Sketch.</desc>
    <defs></defs>
    <g id="Symbols" stroke="none" stroke-width="1" fill="none" fill-rule="evenodd">
        <g id="navbar" transform="translate(-60.000000, -21.000000)" fill="#332E56">
            <g id="basil-logo" transform="translate(60.000000, 21.000000)">
                <g id="Group-3" transform="translate(0.000000, 0.066667)">
                    <path d="M21.5755926,10.0664074 C19.3426296,8.67418519 17.0078148,7.6627037 14.6254074,7.05362963 C14.698,5.86788889 14.8911481,4.86196296 15.0872593,4.10196296 C15.1637407,3.80474074 15.4520741,3.61362963 15.7557778,3.65825926 C16.5467037,3.77511111 17.570963,3.99325926 18.7155926,4.4002963 C22.2396667,5.65325926 25.1654074,8.00437037 27.4117037,11.3882593 C29.1741111,14.044 30.188,16.8382593 30.4398519,19.7225185 C28.9011481,16.5093704 26.2239259,12.9638148 21.5755926,10.0664074 Z M23.8755926,27.5191852 C20.7544815,27.626037 16.870963,26.9443704 12.6824444,24.3332593 C5.7467037,20.0097407 3.99133333,14.0777037 3.55040741,11.2032593 C3.50522222,10.9091852 3.68225926,10.6275185 3.96633333,10.5388148 C5.50485185,10.0571481 8.07688889,9.52251852 11.2587407,9.88881481 C11.5783704,13.3127037 12.7837407,16.6197407 14.8472593,19.7280741 C17.610037,23.8901111 20.9217037,26.2199259 23.8755926,27.5191852 Z M28.7991111,25.4838148 C28.1102222,25.3558519 27.2828148,25.1534444 26.3804074,24.8325185 C22.8563333,23.5797407 19.9305926,21.2284444 17.6842963,17.8447407 C16.1592963,15.5467778 15.1911481,13.1306667 14.7983704,10.6464074 C16.4968889,11.1797407 18.1657778,11.9541852 19.7739259,12.9565926 C26.2618889,17.0006667 28.2135556,22.4786296 28.7991111,25.4838148 Z M32.0713333,28.6543704 C32.4467037,28.2693704 32.7318889,27.8080741 32.910963,27.3008519 C33.7665185,24.8799259 35.5972593,17.5623333 30.2489259,9.50492593 C23.8076296,-0.199333333 14.380037,0.103444444 13.9881852,0.12362963 C13.3537407,0.149 12.7863333,0.525481481 12.5161481,1.09992593 L12.5157778,1.10066667 C12.4037407,1.33955556 11.4917037,3.36159259 11.2381852,6.46159259 C5.43188889,5.90659259 1.39614815,7.8377037 0.934666667,8.07085185 L0.933925926,8.07122222 C0.367814815,8.35751852 0.008,8.93511111 0.000222222222,9.56937037 L0.000222222222,9.57011111 C-0.00496296296,10.0106667 -0.00403703704,20.4382593 10.8807778,27.2232593 C14.8220741,29.6802963 18.9928148,30.926037 23.2770741,30.926037 C26.8324444,30.926037 29.5076296,30.059 30.7626296,29.5547407 C31.2348519,29.3651111 31.6604074,29.076037 32.0155926,28.7115926 L32.0713333,28.6543704 Z" id="Fill-1"></path>
                </g>
                <path d="M44.2952222,20.5018148 L46.2105926,20.5018148 C47.8568889,20.5018148 48.5591111,21.0560741 48.5591111,22.3551481 L48.5591111,22.4379259 C48.5591111,23.7164444 47.8654074,24.312 46.3757778,24.312 L44.2952222,24.312 L44.2952222,20.5018148 Z M48.1265185,16.2510741 C48.1265185,17.4666296 47.5548519,17.939963 46.0874444,17.939963 L44.2952222,17.939963 L44.2952222,14.5829259 L46.0661481,14.5829259 C47.5102222,14.5829259 48.1265185,15.0571852 48.1265185,16.1688519 L48.1265185,16.2510741 Z M49.8126296,19.1260741 C51.0635556,18.5536667 51.7194815,17.4862593 51.7194815,16.0038519 L51.7194815,15.9212593 C51.7194815,14.0762593 50.8354074,11.877 46.6235556,11.877 L40.620037,11.877 L40.620037,27.0388519 L46.8917037,27.0388519 C50.4139259,27.0388519 52.275963,25.5405185 52.275963,22.7058889 L52.275963,22.6231111 C52.275963,20.834963 51.4481852,19.6614444 49.8126296,19.1260741 Z" id="Fill-4"></path>
                <polygon id="Fill-6" points="76.1942593 27.0388889 79.5809259 27.0388889 79.5809259 15.8364815 76.1942593 15.8364815"></polygon>
                <polygon id="Fill-8" points="81.572037 27.0388889 84.9587037 27.0388889 84.9587037 11.46 81.572037 11.46"></polygon>
                <path d="M70.2645556,19.9216667 C68.6458519,19.6874074 68.361037,19.4224074 68.361037,18.9527778 C68.361037,18.3946296 68.8656667,18.047963 69.6784444,18.047963 C70.5414074,18.047963 70.9697407,18.3496296 71.1382593,19.0698148 L74.3123333,19.0698148 C74.0430741,16.7611111 72.4784444,15.5890741 69.6580741,15.5890741 C67.4293704,15.5890741 65.1804815,16.692963 65.1804815,19.1592593 C65.1804815,21.3290741 66.2686296,22.2627778 69.3386296,22.7266667 C71.0262222,22.9738889 71.346037,23.2944444 71.346037,23.7988889 C71.346037,24.037963 71.346037,24.7657407 69.8641852,24.7657407 C68.6564074,24.7657407 68.3084444,24.2696296 68.1906667,23.5192593 L64.9802963,23.5192593 C65.1145556,25.9003704 66.8971481,27.2657407 69.8845556,27.2657407 C72.9004815,27.2657407 74.6301111,25.8966667 74.6301111,23.51 C74.6301111,21.0385185 73.0297407,20.322963 70.2645556,19.9216667" id="Fill-9"></path>
                <path d="M60.2508148,23.0566111 C60.2508148,24.0790185 59.398037,24.7656852 58.1285926,24.7656852 C57.2274815,24.7656852 56.7704444,24.3988333 56.7704444,23.6749444 C56.7704444,23.0236481 57.0715556,22.3577222 59.3041481,22.3577222 L60.2508148,22.3577222 L60.2508148,23.0566111 Z M58.8919259,15.5892037 C55.8656296,15.5892037 54.0258148,16.9992037 53.8391481,19.4579074 L57.0897037,19.4579074 C57.226,18.5943889 57.7537778,18.1712407 58.7061852,18.1712407 C59.8321111,18.1712407 60.2508148,18.6512407 60.2508148,19.942537 L60.2508148,20.1669815 L59.2422963,20.1669815 C54.433963,20.1669815 53.4247037,22.1642037 53.4247037,23.8397593 C53.4247037,25.9849444 54.8519259,27.2656852 57.2422963,27.2656852 C58.5404444,27.2656852 59.5437778,26.8866111 60.2915556,26.1095741 L60.2915556,27.0388333 L63.6163704,27.0388333 L63.6163704,19.7982778 C63.6163704,17.0445741 61.9824815,15.5892037 58.8919259,15.5892037 Z" id="Fill-10"></path>
                <polygon id="Fill-11" points="76.1942593 14.412037 79.5809259 14.412037 79.5809259 11.46 76.1942593 11.46"></polygon>
            </g>
        </g>
    </g>
</svg>